<?xml version="1.0" encoding="UTF-8"?>
<svg version="1.1" xmlns="http://www.w3.org/2000/svg" width="360" height="180">
<path d="M0 0 C118.8 0 237.6 0 360 0 C360 59.4 360 118.8 360 180 C241.2 180 122.4 180 0 180 C0 120.6 0 61.2 0 0 Z " fill="#FEFEFE" transform="translate(0,0)"/>
<path d="M0 0 C1.12857422 -0.03738281 2.25714844 -0.07476562 3.41992188 -0.11328125 C4.51498047 -0.12488281 5.61003906 -0.13648437 6.73828125 -0.1484375 C7.73512939 -0.16825684 8.73197754 -0.18807617 9.7590332 -0.20849609 C13.93832322 0.62422614 15.83640743 2.24194841 18.6875 5.375 C19.28141977 8.18063803 19.48959354 10.11643325 19.4140625 12.90625 C19.41505951 13.61978638 19.41605652 14.33332275 19.41708374 15.06848145 C19.41241998 16.57132149 19.39306549 18.07417969 19.35986328 19.57666016 C19.31262483 21.86894265 19.31875053 24.15657233 19.33203125 26.44921875 C19.3208767 27.91409005 19.30665624 29.37894188 19.2890625 30.84375 C19.29179672 31.86426453 19.29179672 31.86426453 19.29458618 32.90539551 C19.15481571 37.62820493 18.00874799 40.04675991 14.6875 43.375 C10.23995472 45.59877264 4.2587391 44.69453162 -0.625 44.75 C-2.4802832 44.80607422 -2.4802832 44.80607422 -4.37304688 44.86328125 C-14.55501921 44.96229557 -14.55501921 44.96229557 -17.60546875 41.9765625 C-21.18827166 36.51627248 -20.60781868 31.07884578 -20.66259766 24.73632812 C-20.67911675 23.33576799 -20.7063542 21.93529075 -20.74462891 20.53515625 C-21.10133143 7.40850342 -21.10133143 7.40850342 -17.9765625 3.484375 C-12.6099849 -0.76482134 -6.5589584 0.08156986 0 0 Z " fill="#2F4864" transform="translate(328.3125,76.625)"/>
<path d="M0 0 C7.58038432 -0.12690954 15.16049408 -0.21439808 22.74169922 -0.2746582 C25.31992837 -0.2997824 27.89808643 -0.33388759 30.47607422 -0.37719727 C34.18474886 -0.43793664 37.89248075 -0.46623197 41.6015625 -0.48828125 C42.75177887 -0.51408768 43.90199524 -0.5398941 45.08706665 -0.56648254 C54.02708086 -0.56960676 54.02708086 -0.56960676 57.71240234 2.40551758 C61.45099878 6.64565251 61.13275447 9.85558398 61.09765625 15.2890625 C61.0962413 16.10748627 61.09482635 16.92591003 61.09336853 17.76913452 C61.0877629 20.38779325 61.07520948 23.00636704 61.0625 25.625 C61.05748572 27.39843627 61.05292269 29.17187387 61.04882812 30.9453125 C61.03779164 35.29690782 61.02052325 39.6484395 61 44 C58.36 44 55.72 44 53 44 C52.97494385 42.94498291 52.9498877 41.88996582 52.92407227 40.80297852 C52.83015891 36.90229372 52.72989966 33.00179375 52.62768555 29.10131836 C52.58427561 27.41060701 52.54260511 25.71985009 52.50268555 24.02905273 C52.44512906 21.60386394 52.38139351 19.17890585 52.31640625 16.75390625 C52.29969376 15.99348526 52.28298126 15.23306427 52.26576233 14.44960022 C52.47908732 10.92917969 52.47908732 10.92917969 51 8 C44.07 7.505 44.07 7.505 37 7 C37 19.21 37 31.42 37 44 C34.36 44 31.72 44 29 44 C29 32.12 29 20.24 29 8 C23.72 7.67 18.44 7.34 13 7 C13 19.21 13 31.42 13 44 C10.69 44 8.38 44 6 44 C5.505 26.675 5.505 26.675 5 9 C2.525 8.01 2.525 8.01 0 7 C0 4.69 0 2.38 0 0 Z " fill="#2F4965" transform="translate(145,78)"/>
<path d="M0 0 C1.56488159 0.00749268 1.56488159 0.00749268 3.16137695 0.01513672 C4.47323975 0.03334473 5.78510254 0.05155273 7.13671875 0.0703125 C11.32359375 0.1115625 15.51046875 0.1528125 19.82421875 0.1953125 C19.82421875 14.7153125 19.82421875 29.2353125 19.82421875 44.1953125 C15.30734375 44.2778125 10.79046875 44.3603125 6.13671875 44.4453125 C4.72044189 44.48172852 3.30416504 44.51814453 1.8449707 44.55566406 C0.72050537 44.5656543 -0.40395996 44.57564453 -1.5625 44.5859375 C-2.70936279 44.60688477 -3.85622559 44.62783203 -5.0378418 44.64941406 C-8.8649817 44.09557603 -10.43803536 42.87291804 -13.17578125 40.1953125 C-16.14748625 35.737755 -15.92872374 31.42118068 -15.17578125 26.1953125 C-13.52344203 23.01962708 -11.42185154 20.81834765 -8.17578125 19.1953125 C-6.58130661 19.11130721 -4.9833758 19.08803783 -3.38671875 19.09765625 C-2.44570312 19.10087891 -1.5046875 19.10410156 -0.53515625 19.10742188 C0.94210938 19.11999023 0.94210938 19.11999023 2.44921875 19.1328125 C3.44179687 19.13732422 4.434375 19.14183594 5.45703125 19.14648438 C7.91278597 19.15829089 10.36850981 19.17622668 12.82421875 19.1953125 C12.82421875 15.2353125 12.82421875 11.2753125 12.82421875 7.1953125 C6.88421875 7.5253125 0.94421875 7.8553125 -5.17578125 8.1953125 C-5.83578125 10.1753125 -6.49578125 12.1553125 -7.17578125 14.1953125 C-9.48578125 14.1953125 -11.79578125 14.1953125 -14.17578125 14.1953125 C-14.46708999 9.24306391 -14.40564433 6.09342311 -11.17578125 2.1953125 C-7.35783819 0.26771788 -4.24554271 -0.04182801 0 0 Z " fill="#2A4461" transform="translate(81.17578125,77.8046875)"/>
<path d="M0 0 C0.66 0 1.32 0 2 0 C2.01417969 0.59167969 2.02835938 1.18335938 2.04296875 1.79296875 C2.40435356 7.78023604 3.56610646 9.79946928 8 14 C8.25 16.375 8.25 16.375 7 19 C5.28065372 20.92383164 3.48852073 22.69810892 1.59375 24.44921875 C-0.80435642 26.78267034 -1.02149769 28.12038708 -1.625 31.5 C-1.64983078 36.04403312 0.49634188 38.00725227 3.5625 41.1875 C4.83287109 42.38439453 4.83287109 42.38439453 6.12890625 43.60546875 C8 46 8 46 7.90234375 48.6875 C7 51 7 51 5 52.8125 C2.06208984 56.02583924 2.28584449 58.7123327 2 63 C1.34 63 0.68 63 0 63 C0 60.69 0 58.38 0 56 C-5.94 56 -11.88 56 -18 56 C-18 40.16 -18 24.32 -18 8 C-12.06 8 -6.12 8 0 8 C0 5.36 0 2.72 0 0 Z " fill="#FCFBFB" transform="translate(44,59)"/>
<path d="M0 0 C4.54154478 -0.08735463 9.08287232 -0.14051247 13.625 -0.1875 C15.55279297 -0.22520508 15.55279297 -0.22520508 17.51953125 -0.26367188 C19.38544922 -0.27817383 19.38544922 -0.27817383 21.2890625 -0.29296875 C23.00150146 -0.31653442 23.00150146 -0.31653442 24.74853516 -0.34057617 C29.30438249 0.13662814 32.44460433 1.61169943 35.85668945 4.65722656 C37.5776247 8.18361874 37.36827671 11.64849376 37.29296875 15.484375 C37.28872391 16.29996887 37.28447906 17.11556274 37.28010559 17.95587158 C37.26334715 20.55425384 37.22570097 23.15185319 37.1875 25.75 C37.17244946 27.51431169 37.1587617 29.27863558 37.14648438 31.04296875 C37.11345301 35.36227965 37.06169086 39.6810072 37 44 C34.69 44 32.38 44 30 44 C29.97494385 42.97527588 29.9498877 41.95055176 29.92407227 40.89477539 C29.83015516 37.10590324 29.72989683 33.31722119 29.62768555 29.52856445 C29.58427703 27.88635697 29.54260642 26.24410261 29.50268555 24.60180664 C29.4451256 22.24611255 29.38139108 19.89065572 29.31640625 17.53515625 C29.29969376 16.79660904 29.28298126 16.05806183 29.26576233 15.2971344 C29.46451987 11.85699373 29.46451987 11.85699373 28 9 C21.07 8.505 21.07 8.505 14 8 C14 20.21 14 32.42 14 45 C11.36 45 8.72 45 6 45 C5.505 27.675 5.505 27.675 5 10 C2.525 9.01 2.525 9.01 0 8 C0 5.36 0 2.72 0 0 Z " fill="#324B67" transform="translate(227,77)"/>
<path d="M0 0 C10.23 0 20.46 0 31 0 C31 2.64 31 5.28 31 8 C25.06 8 19.12 8 13 8 C13 23.84 13 39.68 13 56 C18.94 56 24.88 56 31 56 C31 58.31 31 60.62 31 63 C20.77 63 10.54 63 0 63 C0 60.69 0 58.38 0 56 C1.98 56 3.96 56 6 56 C5.67 40.82 5.34 25.64 5 10 C2.525 9.01 2.525 9.01 0 8 C0 5.36 0 2.72 0 0 Z " fill="#2A4461" transform="translate(13,59)"/>
<path d="M0 0 C1.73540039 0.01450195 1.73540039 0.01450195 3.50585938 0.02929688 C4.70404297 0.05443359 5.90222656 0.07957031 7.13671875 0.10546875 C8.96299805 0.12577148 8.96299805 0.12577148 10.82617188 0.14648438 C13.8259722 0.18177614 16.8248685 0.23108394 19.82421875 0.29296875 C19.82421875 2.93296875 19.82421875 5.57296875 19.82421875 8.29296875 C11.24421875 8.62296875 2.66421875 8.95296875 -6.17578125 9.29296875 C-6.03140625 13.56234375 -5.88703125 17.83171875 -5.73828125 22.23046875 C-5.69517822 23.57874756 -5.6520752 24.92702637 -5.60766602 26.31616211 C-5.56955811 27.36940674 -5.5314502 28.42265137 -5.4921875 29.5078125 C-5.45552979 30.5918335 -5.41887207 31.67585449 -5.38110352 32.79272461 C-5.4521386 35.23223175 -5.4521386 35.23223175 -4.17578125 36.29296875 C-2.39708399 36.4506128 -0.61259649 36.54397552 1.171875 36.609375 C2.25146484 36.65126953 3.33105469 36.69316406 4.44335938 36.73632812 C5.57966797 36.77564453 6.71597656 36.81496094 7.88671875 36.85546875 C9.02689453 36.89865234 10.16707031 36.94183594 11.34179688 36.98632812 C14.1691407 37.09279714 16.99657613 37.19481082 19.82421875 37.29296875 C19.82421875 39.60296875 19.82421875 41.91296875 19.82421875 44.29296875 C15.2620541 44.4382891 10.70048513 44.52705352 6.13671875 44.60546875 C4.19635742 44.66831055 4.19635742 44.66831055 2.21679688 44.73242188 C0.34604492 44.7565918 0.34604492 44.7565918 -1.5625 44.78125 C-2.70936279 44.80743408 -3.85622559 44.83361816 -5.0378418 44.8605957 C-9.12648238 44.12099488 -10.56705735 42.44222569 -13.17578125 39.29296875 C-15.27392542 35.09668041 -14.40266652 29.64262026 -14.41601562 25.02661133 C-14.42569548 22.99843936 -14.45670657 20.97129233 -14.48828125 18.94335938 C-14.4934375 17.66009766 -14.49859375 16.37683594 -14.50390625 15.0546875 C-14.51325195 13.87865967 -14.52259766 12.70263184 -14.53222656 11.4909668 C-14.13078692 7.88928328 -13.41614881 6.12456138 -11.17578125 3.29296875 C-7.43442116 0.3763192 -4.68572596 -0.06924718 0 0 Z " fill="#304A65" transform="translate(284.17578125,76.70703125)"/>
<path d="M0 0 C0.98484375 -0.00128906 1.9696875 -0.00257812 2.984375 -0.00390625 C4.02078125 -0.00003906 5.0571875 0.00382812 6.125 0.0078125 C7.67960937 0.00201172 7.67960937 0.00201172 9.265625 -0.00390625 C10.25046875 -0.00261719 11.2353125 -0.00132813 12.25 0 C13.16007812 0.00112793 14.07015625 0.00225586 15.0078125 0.00341797 C17.125 0.1328125 17.125 0.1328125 18.125 1.1328125 C18.37842236 5.43928886 18.31022638 9.75726304 18.3125 14.0703125 C18.32474609 15.28912109 18.33699219 16.50792969 18.34960938 17.76367188 C18.35250977 19.50680664 18.35250977 19.50680664 18.35546875 21.28515625 C18.35957764 22.35757568 18.36368652 23.42999512 18.36791992 24.53491211 C18.125 27.1328125 18.125 27.1328125 16.125 29.1328125 C14.09375 29.39160156 14.09375 29.39160156 11.625 29.3984375 C10.738125 29.40101562 9.85125 29.40359375 8.9375 29.40625 C8.009375 29.39851563 7.08125 29.39078125 6.125 29.3828125 C4.7328125 29.39441406 4.7328125 29.39441406 3.3125 29.40625 C1.9821875 29.40238281 1.9821875 29.40238281 0.625 29.3984375 C-0.1896875 29.39618164 -1.004375 29.39392578 -1.84375 29.39160156 C-3.875 29.1328125 -3.875 29.1328125 -5.875 27.1328125 C-6.11791992 24.53491211 -6.11791992 24.53491211 -6.10546875 21.28515625 C-6.10353516 20.12306641 -6.10160156 18.96097656 -6.09960938 17.76367188 C-6.08736328 16.54486328 -6.07511719 15.32605469 -6.0625 14.0703125 C-6.06185547 12.84763672 -6.06121094 11.62496094 -6.06054688 10.36523438 C-6.00878669 0.00744715 -6.00878669 0.00744715 0 0 Z " fill="#FBFCFC" transform="translate(321.875,84.8671875)"/>
<path d="M0 0 C5.92923302 0.57923236 8.44916614 3.94712123 12.13671875 8.31640625 C14.2531344 11.36457722 15.31604992 13.22287528 14.91796875 16.92578125 C13.1732656 20.86806795 9.97073086 23.68511049 6.87109375 26.60546875 C4.74647616 28.82600759 4.74647616 28.82600759 4.96875 31.53125 C6.2064035 34.49411746 7.75720487 36.08852039 10.0625 38.3125 C14.58980734 43.20556826 14.58980734 43.20556826 14.75 47.1875 C13.39389806 54.08101818 9.14619572 58.49707874 4 63 C2.68 63 1.36 63 0 63 C-0.6105285 55.91786938 -0.6105285 55.91786938 1.1484375 53.2734375 C1.61507812 52.77070312 2.08171875 52.26796875 2.5625 51.75 C5.2410777 49.37367827 5.2410777 49.37367827 4.90625 47.09375 C3.72863775 44.37305962 2.04973802 42.82125985 -0.0625 40.75 C-4.6242477 35.71890281 -4.6242477 35.71890281 -4.9375 31.9375 C-4.4094976 26.77135891 -0.57115203 23.44187956 3 20 C3.66 19.34 4.32 18.68 5 18 C4.97610842 15.54051214 4.97610842 15.54051214 4 13 C3.319375 12.4225 2.63875 11.845 1.9375 11.25 C-0.74054769 8.14000914 -0.32011461 5.80253784 -0.140625 1.828125 C-0.09421875 1.22484375 -0.0478125 0.6215625 0 0 Z " fill="#F26A29" transform="translate(46,59)"/>
<path d="M0 0 C4.32322461 -0.12400035 8.64549602 -0.21452256 12.9699707 -0.2746582 C14.43955525 -0.29973644 15.90901587 -0.33380856 17.37817383 -0.37719727 C19.49591681 -0.43815499 21.61200576 -0.46627316 23.73046875 -0.48828125 C25.00301514 -0.51446533 26.27556152 -0.54064941 27.58666992 -0.56762695 C31.883195 0.14687278 33.29513145 1.67114788 36 5 C37.4783226 7.95664519 37.06032783 10.74229737 37 14 C34.69 14 32.38 14 30 14 C29.67 12.02 29.34 10.04 29 8 C23.72 7.67 18.44 7.34 13 7 C13 19.21 13 31.42 13 44 C10.69 44 8.38 44 6 44 C5.505 26.675 5.505 26.675 5 9 C2.525 8.01 2.525 8.01 0 7 C0 4.69 0 2.38 0 0 Z " fill="#2A4461" transform="translate(105,78)"/>
<path d="M0 0 C4.29 0 8.58 0 13 0 C13 14.52 13 29.04 13 44 C10.69 44 8.38 44 6 44 C5.67 32.78 5.34 21.56 5 10 C2.525 9.01 2.525 9.01 0 8 C0 5.36 0 2.72 0 0 Z " fill="#2A4561" transform="translate(210,77)"/>
<path d="M0 0 C0.74362793 0.01047363 1.48725586 0.02094727 2.25341797 0.03173828 C3.46191406 0.04140625 3.46191406 0.04140625 4.69482422 0.05126953 C5.95746094 0.07640625 5.95746094 0.07640625 7.24560547 0.10205078 C8.51984375 0.11558594 8.51984375 0.11558594 9.81982422 0.12939453 C11.9202043 0.15299431 14.02043991 0.18886595 16.12060547 0.22705078 C16.12060547 3.85705078 16.12060547 7.48705078 16.12060547 11.22705078 C13.16203138 11.28084304 10.20442825 11.32062171 7.24560547 11.35205078 C5.98296875 11.3771875 5.98296875 11.3771875 4.69482422 11.40283203 C3.88916016 11.40927734 3.08349609 11.41572266 2.25341797 11.42236328 C1.50979004 11.43283691 0.76616211 11.44331055 0 11.45410156 C-1.87939453 11.22705078 -1.87939453 11.22705078 -3.87939453 9.22705078 C-4.12939453 5.72705078 -4.12939453 5.72705078 -3.87939453 2.22705078 C-1.87939453 0.22705078 -1.87939453 0.22705078 0 0 Z " fill="#EBEDF0" transform="translate(77.87939453125,103.77294921875)"/>
<path d="M0 0 C2.93453261 0.36681658 3.86437246 0.86437246 6 3 C5.625 5.625 5.625 5.625 5 8 C2.625 8.625 2.625 8.625 0 9 C-2 7 -2 7 -2.25 4.5 C-2 2 -2 2 0 0 Z " fill="#F26F30" transform="translate(217,63)"/>
</svg>
