<svg xmlns="http://www.w3.org/2000/svg" viewBox="0 0 24 24" role="img" aria-label="Amazon Web Services">
  <path fill="#FF9900" d="M6.763 10.036c0 .296.032.535.088.71.064.176.144.368.256.576.04.063.056.127.056.183 0 .08-.048.16-.152.24l-.503.335a.383.383 0 0 1-.208.072c-.08 0-.16-.04-.239-.112a2.47 2.47 0 0 1-.287-.375 6.18 6.18 0 0 1-.248-.471c-.622.734-1.405 1.101-2.347 1.101-.671 0-1.205-.191-1.596-.574-.391-.384-.59-.894-.59-1.533 0-.678.239-1.23.726-1.644.487-.415 1.133-.623 1.955-.623.272 0 .551.024.838.064.296.048.602.112.918.176v-.583c0-.607-.127-1.03-.375-1.277-.255-.248-.686-.367-1.3-.367-.28 0-.568.031-.863.103-.295.072-.583.16-.863.272a2.287 2.287 0 0 1-.28.104.488.488 0 0 1-.127.023c-.112 0-.168-.08-.168-.247v-.391c0-.128.016-.224.056-.28a.597.597 0 0 1 .224-.167c.279-.144.614-.264 1.005-.36a4.84 4.84 0 0 1 1.246-.151c.95 0 1.644.216 2.091.647.439.43.662 1.085.662 1.963v2.586zm-3.24 1.214c.263 0 .534-.048.822-.144.287-.096.543-.271.758-.51.128-.152.224-.32.272-.512.047-.191.08-.423.08-.694v-.335a6.66 6.66 0 0 0-.735-.136 6.02 6.02 0 0 0-.75-.048c-.535 0-.926.104-1.19.32-.263.215-.39.518-.39.917 0 .374.095.655.295.855.191.2.47.296.838.296zm6.41.862c-.144 0-.24-.024-.304-.08-.064-.048-.12-.16-.168-.311L7.586 5.55a1.398 1.398 0 0 1-.072-.32c0-.128.064-.2.191-.2h.783c.151 0 .255.025.31.08.065.048.112.16.16.311l1.342 5.284 1.245-5.284c.04-.16.088-.263.152-.311a.549.549 0 0 1 .32-.08h.638c.152 0 .256.025.32.08.064.048.12.16.168.311l1.261 5.348 1.381-5.348c.048-.16.104-.263.16-.311a.52.52 0 0 1 .311-.08h.743c.127 0 .2.065.2.2 0 .04-.009.08-.017.12a1.137 1.137 0 0 1-.056.2l-1.923 6.17c-.048.16-.104.263-.168.311a.549.549 0 0 1-.304.08h-.687c-.151 0-.255-.024-.32-.08-.064-.056-.119-.16-.167-.311L14.06 6.76l-1.233 5.283c-.04.16-.087.263-.151.311a.51.51 0 0 1-.32.08h-.687zm10.256.005c-.415 0-.83-.048-1.229-.143-.399-.096-.71-.2-.918-.311-.128-.071-.215-.151-.247-.223a.563.563 0 0 1-.048-.224v-.402c0-.167.064-.247.183-.247.048 0 .096.008.144.024.048.016.12.048.2.08.271.12.566.215.878.279.319.064.634.096.95.096.502 0 .894-.088 1.165-.264a.86.86 0 0 0 .415-.758.828.828 0 0 0-.215-.559c-.144-.151-.416-.287-.807-.415l-1.157-.36c-.583-.183-1.012-.454-1.276-.813a1.902 1.902 0 0 1-.4-1.158 1.98 1.98 0 0 1 .215-.916 2.29 2.29 0 0 1 .583-.687 2.868 2.868 0 0 1 .862-.447 3.352 3.352 0 0 1 1.044-.151c.175 0 .359.008.534.032.183.024.35.056.518.088.16.04.312.08.463.127.152.048.271.096.359.144a.732.732 0 0 1 .272.2.43.43 0 0 1 .071.263v.375c0 .167-.064.255-.183.255a.83.83 0 0 1-.303-.096 3.652 3.652 0 0 0-1.532-.311c-.454 0-.815.071-1.062.223-.248.151-.375.375-.375.687 0 .224.08.416.24.567.159.152.454.304.877.447l1.134.358c.574.183.991.44 1.237.766.247.327.367.702.367 1.117 0 .335-.071.654-.207.926a2.168 2.168 0 0 1-.583.703 2.588 2.588 0 0 1-.877.447 3.416 3.416 0 0 1-1.101.143zM23.035 8.445a.357.357 0 0 0-.303-.151h-2.262a.608.608 0 0 0-.303.08.462.462 0 0 0-.183.2l-3.175 4.688-2.705-4.6a.474.474 0 0 0-.183-.2.582.582 0 0 0-.311-.08h-2.278c-.127 0-.215.064-.215.151 0 .08.032.151.095.215l4.078 5.803-4.252 6.138c-.064.08-.096.168-.096.248 0 .127.096.215.287.215h2.285c.167 0 .303-.072.367-.216l4.302-6.193 2.697 4.6c.048.08.112.144.183.2.071.048.152.08.247.08h2.286c.127 0 .215-.08.215-.2 0-.08-.032-.16-.096-.224L18.82 14.6l3.933-5.67c.064-.072.096-.144.096-.224z"/>
</svg>
